<?xml version="1.0" encoding="UTF-8"?>
<svg id="Vrstva_1" data-name="Vrstva 1" xmlns="http://www.w3.org/2000/svg" viewBox="0 0 283.38 116.55">
  <defs>
    <style>
      .cls-1 {
        fill: #88b340;
      }
    </style>
  </defs>
  <g id="logo_text_barva">
    <g>
      <g>
        <path d="M82.64,60.59c-4.3,0-8.19-.76-11.64-2.28-3.46-1.52-6.3-3.7-8.51-6.54-2.22-2.84-3.63-6.22-4.22-10.15l11.46-1.69c.81,3.34,2.47,5.9,5,7.71,2.53,1.8,5.41,2.7,8.63,2.7,1.8,0,3.55-.28,5.25-.85,1.69-.57,3.09-1.4,4.18-2.5,1.09-1.1,1.63-2.46,1.63-4.08,0-.59-.09-1.16-.26-1.71s-.46-1.07-.87-1.55c-.4-.48-.98-.94-1.71-1.37-.74-.43-1.68-.82-2.81-1.17l-15.09-4.44c-1.13-.32-2.44-.78-3.93-1.37-1.49-.59-2.94-1.44-4.34-2.54-1.4-1.1-2.56-2.56-3.49-4.38-.93-1.82-1.39-4.11-1.39-6.88,0-3.9.98-7.14,2.95-9.72,1.96-2.58,4.59-4.5,7.87-5.77,3.28-1.26,6.91-1.88,10.89-1.86,4.01.05,7.59.74,10.73,2.06s5.78,3.23,7.91,5.75c2.12,2.52,3.66,5.59,4.6,9.22l-11.86,2.02c-.43-1.88-1.22-3.47-2.38-4.76-1.16-1.29-2.54-2.27-4.14-2.94-1.6-.67-3.28-1.04-5.02-1.09-1.72-.05-3.34.18-4.86.71-1.52.52-2.76,1.29-3.71,2.28-.96.99-1.43,2.18-1.43,3.55,0,1.26.39,2.29,1.17,3.09.78.79,1.76,1.43,2.95,1.92s2.39.89,3.63,1.21l10.09,2.74c1.51.4,3.17.93,5,1.59,1.83.66,3.58,1.57,5.26,2.74,1.68,1.17,3.07,2.71,4.16,4.62,1.09,1.91,1.63,4.33,1.63,7.26,0,3.12-.65,5.84-1.96,8.17-1.31,2.33-3.06,4.25-5.26,5.77-2.21,1.52-4.7,2.66-7.49,3.41-2.79.75-5.66,1.13-8.62,1.13Z"/>
        <path d="M138.16,60.63c-5.81,0-10.82-1.26-15.03-3.79-4.21-2.53-7.45-6.07-9.72-10.61s-3.41-9.83-3.41-15.86,1.14-11.31,3.41-15.86c2.27-4.55,5.52-8.08,9.72-10.61,4.21-2.53,9.22-3.79,15.03-3.79s10.82,1.26,15.03,3.79c4.21,2.53,7.45,6.07,9.72,10.61,2.27,4.55,3.41,9.83,3.41,15.86s-1.14,11.31-3.41,15.86c-2.27,4.55-5.52,8.08-9.72,10.61-4.21,2.53-9.22,3.79-15.03,3.79ZM138.16,50.3c3.69.06,6.75-.74,9.2-2.38s4.28-3.97,5.51-6.98c1.22-3.01,1.84-6.54,1.84-10.57s-.61-7.53-1.84-10.49c-1.22-2.96-3.06-5.26-5.51-6.9-2.45-1.64-5.52-2.49-9.2-2.54-3.69-.05-6.75.74-9.2,2.38-2.45,1.64-4.28,3.97-5.51,6.98-1.22,3.01-1.84,6.54-1.84,10.57s.61,7.53,1.84,10.49c1.22,2.96,3.06,5.26,5.51,6.9,2.45,1.64,5.52,2.49,9.2,2.54Z"/>
        <path d="M172.78,59.42V1.31h11.14l25.26,38.74V1.31h11.14v58.1h-11.14l-25.26-38.74v38.74h-11.14Z"/>
        <path d="M254.93,60.63c-5.81,0-10.82-1.26-15.03-3.79-4.21-2.53-7.45-6.07-9.72-10.61s-3.41-9.83-3.41-15.86,1.14-11.31,3.41-15.86,5.52-8.08,9.72-10.61c4.21-2.53,9.22-3.79,15.03-3.79s10.82,1.26,15.03,3.79c4.21,2.53,7.45,6.07,9.72,10.61,2.27,4.55,3.41,9.83,3.41,15.86s-1.14,11.31-3.41,15.86c-2.27,4.55-5.52,8.08-9.72,10.61-4.21,2.53-9.22,3.79-15.03,3.79ZM254.93,50.3c3.69.06,6.75-.74,9.2-2.38,2.45-1.64,4.28-3.97,5.51-6.98,1.22-3.01,1.84-6.54,1.84-10.57s-.61-7.53-1.84-10.49c-1.22-2.96-3.06-5.26-5.51-6.9-2.45-1.64-5.52-2.49-9.2-2.54-3.69-.05-6.75.74-9.2,2.38-2.45,1.64-4.28,3.97-5.51,6.98-1.22,3.01-1.84,6.54-1.84,10.57s.61,7.53,1.84,10.49c1.22,2.96,3.06,5.26,5.51,6.9,2.45,1.64,5.52,2.49,9.2,2.54Z"/>
        <path class="cls-1" d="M7.88,28.1c2.43-3.54,6.93-4.69,10.64-4.23,8.2,1.06,14.67,7.51,15.72,15.72.47,3.71-.69,8.22-4.23,10.64,2.42-2.97,2.57-6.54,1.71-9.83-2.34-9.03-14.53-19.3-23.84-12.31h0Z"/>
        <path class="cls-1" d="M10.11,19.53c3.28-5.13,9.38-7.22,14.47-6.95,11.54.64,20.33,9.41,20.96,20.95.27,5.09-1.82,11.19-6.95,14.47,3.61-3.97,4.16-8.77,3.26-13.2-2.48-12.49-18.97-26.07-31.74-15.27h0Z"/>
        <path class="cls-1" d="M12.33,10.97C16.46,4.25,24.16,1.22,30.62,1.3c14.88.23,25.98,11.3,26.2,26.19.08,6.46-2.96,14.17-9.68,18.29,4.8-4.96,5.75-10.99,4.82-16.58C49.35,13.24,28.55-3.64,12.33,10.97h0Z"/>
      </g>
      <path d="M25.66,44.76c-.59-5.02-3.41-9.97-8.38-11.92-1.87-.79-3.9-1.15-5.84-1.02,1.98.07,3.95.62,5.65,1.53,3.76,1.88,5.71,7.05,5.69,10.95-.52,5.23-5.04,11.38-11.39,7.18,3.79-4.09,7.32-10.56,2.97-15-4.14-4.23-10.28-.94-12.44,3.35-2.92,5.08-2.02,11.91,2.65,16.47,10.53,11.04,22.84-1.38,21.09-11.55ZM8.04,48.86l-.05-.07c-1.79-2.59-3.82-7.41-.44-9.6.98-.58,1.52-.37,1.69-.3,4.06,1.98,2.39,7.69-1.2,9.97Z"/>
    </g>
    <g>
      <g>
        <path d="M5.9,110.48c-1.13,0-2.05-.19-2.76-.57s-1.26-.87-1.66-1.45c-.4-.59-.68-1.2-.85-1.83s-.27-1.21-.31-1.74c-.04-.52-.05-.91-.05-1.15v-8.07h3.68v6.8c0,.33.02.75.05,1.26s.15,1.02.33,1.54c.19.52.49.95.91,1.29.42.35,1.02.52,1.79.52.31,0,.64-.05,1-.15.36-.1.69-.29,1-.57.31-.28.57-.69.77-1.24s.3-1.26.3-2.15l2.08.99c0,1.14-.23,2.2-.69,3.2-.46,1-1.16,1.8-2.09,2.41-.93.61-2.1.92-3.51.92ZM10.57,110.05v-4.77h-.45v-9.62h3.65v14.39h-3.2Z"/>
        <path d="M17.42,110.05v-19.59h3.62v19.59h-3.62Z"/>
        <path d="M23.19,98.46v-2.8h10.23v2.8h-10.23ZM33.42,110.05c-1,.19-1.97.27-2.92.25s-1.81-.19-2.56-.51c-.75-.31-1.32-.82-1.71-1.53-.36-.66-.54-1.33-.56-2.01s-.03-1.45-.03-2.31v-12.29h3.62v12.07c0,.56,0,1.06.02,1.51.01.45.1.81.27,1.07.32.51.83.78,1.53.83s1.48,0,2.33-.11v3.01Z"/>
        <path d="M36.3,110.05v-14.39h3.2v3.52l-.35-.45c.19-.5.44-.95.75-1.36.31-.41.69-.75,1.15-1.01.35-.21.72-.38,1.13-.5.41-.12.83-.19,1.27-.23s.87-.02,1.31.03v3.38c-.4-.12-.86-.17-1.39-.13s-1.01.16-1.43.37c-.43.19-.79.46-1.08.78-.29.32-.52.71-.67,1.15-.15.44-.23.93-.23,1.49v7.36h-3.65Z"/>
        <path d="M51.12,110.45c-1.03,0-1.9-.2-2.62-.59-.71-.39-1.26-.92-1.63-1.59-.37-.66-.55-1.39-.55-2.19,0-.67.1-1.27.31-1.83.2-.55.53-1.04.99-1.46.46-.42,1.07-.77,1.85-1.06.53-.19,1.17-.37,1.91-.52.74-.15,1.57-.3,2.51-.43s1.96-.29,3.08-.46l-1.31.72c0-.85-.2-1.48-.61-1.88-.41-.4-1.09-.6-2.05-.6-.53,0-1.09.13-1.67.39-.58.26-.98.72-1.21,1.37l-3.28-1.04c.36-1.19,1.05-2.16,2.05-2.9,1-.75,2.37-1.12,4.1-1.12,1.27,0,2.4.2,3.39.59.99.39,1.73,1.07,2.24,2.03.28.53.45,1.07.51,1.6.05.53.08,1.13.08,1.79v8.79h-3.17v-2.96l.45.61c-.7.97-1.46,1.67-2.27,2.1-.81.43-1.84.65-3.09.65ZM51.9,107.6c.67,0,1.23-.12,1.69-.35.46-.24.82-.5,1.09-.81.27-.3.45-.55.55-.76.19-.39.29-.85.33-1.36.03-.52.05-.95.05-1.3l1.07.27c-1.08.18-1.95.33-2.61.45-.67.12-1.2.23-1.61.33-.41.1-.77.2-1.08.32-.36.14-.64.3-.86.46-.22.16-.38.34-.48.54-.1.19-.15.41-.15.65,0,.33.08.61.25.85.16.24.4.42.7.54.3.12.66.19,1.08.19Z"/>
        <path d="M61.21,110.05v-.45l7.06-10.79h-6.26v-3.14h11.86v.45l-7.04,10.79h6.77v3.14h-12.39Z"/>
        <path d="M80.86,110.05l-5.22-14.39h3.62l3.41,9.97,3.41-9.97h3.62l-5.22,14.39h-3.62Z"/>
        <path d="M97.36,110.48c-1.13,0-2.05-.19-2.76-.57s-1.26-.87-1.66-1.45c-.4-.59-.68-1.2-.85-1.83-.17-.64-.27-1.21-.31-1.74-.04-.52-.05-.91-.05-1.15v-8.07h3.68v6.8c0,.33.02.75.05,1.26s.15,1.02.33,1.54c.19.52.49.95.91,1.29.42.35,1.02.52,1.79.52.31,0,.64-.05,1-.15.36-.1.69-.29,1-.57.31-.28.57-.69.77-1.24s.3-1.26.3-2.15l2.08.99c0,1.14-.23,2.2-.69,3.2-.46,1-1.16,1.8-2.09,2.41-.93.61-2.1.92-3.51.92ZM102.02,110.05v-4.77h-.45v-9.62h3.65v14.39h-3.2Z"/>
        <path d="M108.74,110.05l.03-19.19h3.68v11.73l4.88-6.93h4.48l-5.2,7.2,5.54,7.2h-4.72l-4.98-6.93v6.93h-3.7Z"/>
        <path d="M129.51,110.45c-1.45,0-2.72-.32-3.81-.97-1.09-.65-1.94-1.54-2.55-2.68-.61-1.14-.91-2.45-.91-3.94s.31-2.82.93-3.96c.62-1.14,1.48-2.03,2.57-2.67,1.09-.64,2.35-.96,3.77-.96s2.72.32,3.82.97c1.1.65,1.95,1.54,2.56,2.68.61,1.14.92,2.45.92,3.94s-.31,2.81-.93,3.95-1.47,2.03-2.57,2.68c-1.1.64-2.36.97-3.8.97ZM129.51,107.07c1.16,0,2.03-.39,2.61-1.18.57-.79.86-1.8.86-3.03s-.29-2.3-.87-3.06-1.45-1.15-2.59-1.15c-.79,0-1.44.18-1.94.53-.51.35-.88.85-1.13,1.48-.24.63-.37,1.36-.37,2.2,0,1.29.29,2.31.87,3.07.58.76,1.44,1.14,2.56,1.14Z"/>
        <path d="M142.88,110.05l-5.22-14.39h3.62l3.41,9.97,3.41-9.97h3.62l-5.22,14.39h-3.62Z"/>
        <path d="M160.04,110.45c-1.47,0-2.77-.32-3.9-.95-1.12-.64-2-1.51-2.64-2.63-.64-1.11-.95-2.39-.95-3.83,0-1.57.31-2.94.93-4.1.62-1.16,1.48-2.07,2.57-2.71s2.35-.97,3.77-.97c1.51,0,2.79.36,3.85,1.07,1.06.71,1.84,1.71,2.34,3,.51,1.29.68,2.8.53,4.54h-3.58v-1.33c0-1.47-.23-2.52-.7-3.16s-1.23-.97-2.29-.97c-1.23,0-2.14.37-2.72,1.13s-.87,1.86-.87,3.32c0,1.34.29,2.38.87,3.11.58.73,1.44,1.1,2.56,1.1.71,0,1.32-.15,1.83-.47.51-.31.89-.76,1.16-1.35l3.62,1.04c-.54,1.32-1.4,2.34-2.56,3.07-1.17.73-2.45,1.09-3.83,1.09ZM155.27,103.87v-2.69h9.54v2.69h-9.54ZM161.47,93.66h-2.69l2.21-5.2h2.69l-2.21,5.2Z"/>
        <path d="M174.86,116.45v-20.79h3.2v9.86h.45v10.93h-3.65ZM181.95,110.45c-1.43,0-2.63-.33-3.59-1-.96-.67-1.68-1.57-2.16-2.72s-.73-2.44-.73-3.88.24-2.73.72-3.88c.48-1.15,1.19-2.05,2.12-2.72.93-.67,2.08-1,3.45-1s2.58.33,3.6.99c1.02.66,1.81,1.56,2.38,2.7s.85,2.45.85,3.91-.28,2.73-.83,3.88c-.55,1.15-1.33,2.05-2.32,2.72-1,.67-2.15,1-3.48,1ZM181.36,107.23c.78,0,1.42-.19,1.92-.59s.87-.92,1.11-1.58c.24-.66.36-1.4.36-2.21s-.12-1.53-.37-2.19c-.25-.66-.63-1.19-1.15-1.59-.52-.39-1.18-.59-1.99-.59-.76,0-1.37.18-1.83.55s-.81.88-1.02,1.53c-.21.66-.32,1.42-.32,2.29s.11,1.63.32,2.29c.21.66.56,1.17,1.05,1.53s1.13.55,1.94.55Z"/>
        <path d="M189.96,89.27h3.33l2,2.4,2-2.4h3.33l-3.84,4.4h-2.99l-3.84-4.4ZM191.1,110.05v-14.39h3.2v3.52l-.35-.45c.19-.5.44-.95.75-1.36.31-.41.69-.75,1.15-1.01.35-.21.72-.38,1.13-.5.41-.12.83-.19,1.27-.23s.87-.02,1.31.03v3.38c-.4-.12-.86-.17-1.39-.13s-1.01.16-1.43.37c-.43.19-.79.46-1.08.78-.29.32-.52.71-.67,1.15-.15.44-.23.93-.23,1.49v7.36h-3.65Z"/>
        <path d="M201.76,110.05v-14.39h3.62v14.39h-3.62ZM204.98,93.66h-2.69l2.21-5.2h2.69l-2.21,5.2Z"/>
        <path d="M214.6,110.45c-1.81,0-3.28-.41-4.39-1.23-1.11-.82-1.79-1.98-2.03-3.48l3.7-.56c.15.67.49,1.2,1.01,1.58s1.18.57,1.98.57c.66,0,1.16-.13,1.52-.38.36-.25.53-.61.53-1.06,0-.28-.07-.51-.21-.69-.14-.17-.46-.34-.95-.51-.49-.17-1.26-.39-2.3-.67-1.17-.3-2.11-.64-2.81-1.01s-1.21-.82-1.52-1.34c-.31-.52-.47-1.15-.47-1.89,0-.92.24-1.73.71-2.41.47-.68,1.13-1.2,1.99-1.57.86-.37,1.87-.55,3.03-.55s2.13.17,3,.52c.87.35,1.57.84,2.11,1.48.54.64.87,1.39.99,2.26l-3.7.67c-.06-.53-.29-.95-.69-1.27-.4-.31-.94-.49-1.63-.55-.67-.04-1.2.05-1.61.27-.41.22-.61.54-.61.96,0,.25.09.46.26.63s.53.34,1.08.52c.55.18,1.38.41,2.5.69,1.09.28,1.97.62,2.63.99.66.38,1.14.83,1.45,1.36.3.53.45,1.17.45,1.91,0,1.47-.53,2.63-1.6,3.48-1.07.84-2.54,1.27-4.42,1.27Z"/>
        <path d="M222.11,98.46v-2.8h10.23v2.8h-10.23ZM232.34,110.05c-1,.19-1.97.27-2.92.25s-1.81-.19-2.56-.51c-.75-.31-1.32-.82-1.71-1.53-.36-.66-.54-1.33-.56-2.01s-.03-1.45-.03-2.31v-12.29h3.62v12.07c0,.56,0,1.06.02,1.51.01.45.1.81.27,1.07.32.51.83.78,1.53.83s1.48,0,2.33-.11v3.01Z"/>
        <path d="M235.22,110.05v-14.39h3.2v3.52l-.35-.45c.19-.5.44-.95.75-1.36.31-.41.69-.75,1.15-1.01.35-.21.72-.38,1.13-.5.41-.12.83-.19,1.27-.23s.87-.02,1.31.03v3.38c-.4-.12-.86-.17-1.39-.13s-1.01.16-1.43.37c-.43.19-.79.46-1.08.78-.29.32-.52.71-.67,1.15-.15.44-.23.93-.23,1.49v7.36h-3.65Z"/>
        <path d="M252.44,110.45c-1.45,0-2.72-.32-3.81-.97-1.09-.65-1.94-1.54-2.55-2.68-.61-1.14-.91-2.45-.91-3.94s.31-2.82.93-3.96c.62-1.14,1.48-2.03,2.57-2.67,1.09-.64,2.35-.96,3.77-.96s2.72.32,3.82.97c1.1.65,1.95,1.54,2.56,2.68.61,1.14.92,2.45.92,3.94s-.31,2.81-.93,3.95-1.47,2.03-2.57,2.68c-1.1.64-2.36.97-3.8.97ZM252.44,107.07c1.16,0,2.03-.39,2.61-1.18s.86-1.8.86-3.03-.29-2.3-.87-3.06-1.45-1.15-2.59-1.15c-.79,0-1.44.18-1.94.53-.51.35-.88.85-1.13,1.48-.24.63-.37,1.36-.37,2.2,0,1.29.29,2.31.87,3.07.58.76,1.44,1.14,2.56,1.14Z"/>
        <path d="M259.87,116.45v-3.39h.64c.83,0,1.39-.19,1.7-.56.31-.37.46-.91.46-1.6v-15.24h3.62v17c0,1.15-.36,2.06-1.07,2.75-.72.69-1.68,1.03-2.9,1.03h-2.45ZM262.67,93.66v-3.2h3.62v3.2h-3.62Z"/>
        <path d="M276.56,110.45c-1.47,0-2.77-.32-3.9-.95-1.12-.64-2-1.51-2.64-2.63-.64-1.11-.95-2.39-.95-3.83,0-1.57.31-2.94.93-4.1.62-1.16,1.48-2.07,2.57-2.71s2.35-.97,3.77-.97c1.51,0,2.79.36,3.85,1.07,1.06.71,1.84,1.71,2.34,3,.51,1.29.68,2.8.53,4.54h-3.58v-1.33c0-1.47-.23-2.52-.7-3.16s-1.23-.97-2.29-.97c-1.23,0-2.14.37-2.72,1.13s-.87,1.86-.87,3.32c0,1.34.29,2.38.87,3.11.58.73,1.44,1.1,2.56,1.1.71,0,1.32-.15,1.83-.47.51-.31.89-.76,1.16-1.35l3.62,1.04c-.54,1.32-1.4,2.34-2.56,3.07-1.17.73-2.45,1.09-3.83,1.09ZM271.79,103.87v-2.69h9.54v2.69h-9.54Z"/>
      </g>
      <rect class="cls-1" x=".28" y="75.68" width="282.85" height="4.99"/>
    </g>
  </g>
</svg>